<svg width="198" height="197" viewBox="0 0 198 197" fill="none" xmlns="http://www.w3.org/2000/svg">
<g clip-path="url(#clip0_1901_10018)">
<path d="M77.5791 25.0402L71.1315 31.4291L123.242 53.101L95.257 25.0139C90.3547 20.1999 82.4749 20.1042 77.5791 25.0402ZM52.1316 146.451L132.997 146.508C135.446 146.538 137.85 145.851 139.913 144.533C141.977 143.214 143.61 141.321 144.612 139.087C145.236 137.586 145.596 135.908 145.585 134.144L145.672 84.2927C145.683 79.2205 142.516 74.79 138.294 72.8986C136.817 72.2169 135.024 71.8094 133.308 71.7048L52.3461 71.8792C49.8948 71.8165 47.4815 72.4932 45.4202 73.8211C43.3588 75.149 41.7449 77.0666 40.7886 79.3245C40.1646 80.8249 39.8868 82.4693 39.8062 84.128L39.7434 133.921C39.7254 137.225 41.0203 140.401 43.3433 142.751C45.6664 145.101 48.8275 146.432 52.1316 146.451ZM68.9621 44.1325C65.9011 42.8595 62.4597 42.8546 59.395 44.1189C56.3304 45.3832 53.8935 47.8132 52.6205 50.8742L49.1405 59.2419L105.549 59.3484" fill="#AACE9B"/>
</g>
<defs>
<clipPath id="clip0_1901_10018">
<rect width="150" height="150" fill="white" transform="translate(0.949219 138.5) rotate(-67.4185)"/>
</clipPath>
</defs>
</svg>
