<svg width="151" height="127" viewBox="0 0 151 127" fill="none" xmlns="http://www.w3.org/2000/svg">
<g clip-path="url(#clip0_1901_10034)">
<path d="M115.885 23.0769H12.0385C8.97827 23.0769 6.04342 24.2926 3.87954 26.4565C1.71566 28.6203 0.5 31.5552 0.5 34.6154V115.385C0.5 118.445 1.71566 121.38 3.87954 123.544C6.04342 125.707 8.97827 126.923 12.0385 126.923H115.885C118.945 126.923 121.88 125.707 124.044 123.544C126.207 121.38 127.423 118.445 127.423 115.385V34.6154C127.423 31.5552 126.207 28.6203 124.044 26.4565C121.88 24.2926 118.945 23.0769 115.885 23.0769ZM115.885 115.385H12.0385V34.6154H115.885V115.385ZM150.5 11.5385V98.0769C150.5 99.607 149.892 101.074 148.81 102.156C147.728 103.238 146.261 103.846 144.731 103.846C143.201 103.846 141.733 103.238 140.651 102.156C139.569 101.074 138.962 99.607 138.962 98.0769V11.5385H29.3462C27.8161 11.5385 26.3486 10.9306 25.2667 9.84869C24.1848 8.76675 23.5769 7.29933 23.5769 5.76923C23.5769 4.23914 24.1848 2.77171 25.2667 1.68977C26.3486 0.607829 27.8161 0 29.3462 0H138.962C142.022 0 144.957 1.21566 147.12 3.37954C149.284 5.54342 150.5 8.47827 150.5 11.5385Z" fill="#AACE9B"/>
</g>
<defs>
<clipPath id="clip0_1901_10034">
<rect width="150" height="126.923" fill="white" transform="translate(0.5)"/>
</clipPath>
</defs>
</svg>
