<svg width="151" height="155" viewBox="0 0 151 155" fill="none" xmlns="http://www.w3.org/2000/svg">
<path d="M108.312 43.5635H23.9375C18.7598 43.5635 14.5625 47.8978 14.5625 53.2443V121.01C14.5625 126.357 18.7598 130.691 23.9375 130.691H108.312C113.49 130.691 117.688 126.357 117.688 121.01V53.2443C117.688 47.8978 113.49 43.5635 108.312 43.5635Z" fill="#AACE9B"/>
<path d="M127.062 24.2021H38C36.7568 24.2021 35.5645 24.7121 34.6854 25.6199C33.8064 26.5276 33.3125 27.7588 33.3125 29.0426C33.3125 30.3263 33.8064 31.5575 34.6854 32.4653C35.5645 33.373 36.7568 33.883 38 33.883H127.062V106.49C127.062 107.773 127.556 109.005 128.435 109.912C129.315 110.82 130.507 111.33 131.75 111.33C132.993 111.33 134.185 110.82 135.065 109.912C135.944 109.005 136.438 107.773 136.438 106.49V33.883C136.438 31.3155 135.45 28.8531 133.692 27.0376C131.933 25.2221 129.549 24.2021 127.062 24.2021Z" fill="#AACE9B"/>
</svg>
