<svg width="20" height="21" viewBox="0 0 20 21" fill="none" xmlns="http://www.w3.org/2000/svg">
<path d="M9.76649 2.54199C8.69759 2.54199 7.63916 2.75754 6.65162 3.17633C5.66409 3.59512 4.76679 4.20895 4.01097 4.98277C2.48451 6.54557 1.62695 8.66519 1.62695 10.8753C1.62695 14.5587 3.963 17.6837 7.1944 18.792C7.60137 18.8587 7.7316 18.6003 7.7316 18.3753V16.967C5.47695 17.467 4.99672 15.8503 4.99672 15.8503C4.6223 14.8837 4.09323 14.6253 4.09323 14.6253C3.35253 14.1087 4.15021 14.1253 4.15021 14.1253C4.96416 14.1837 5.39556 14.9837 5.39556 14.9837C6.1037 16.2503 7.30021 15.8753 7.76416 15.6753C7.83742 15.1337 8.04905 14.767 8.27695 14.5587C6.46998 14.3503 4.57346 13.6337 4.57346 10.4587C4.57346 9.53366 4.88277 8.79199 5.41184 8.20033C5.33044 7.99199 5.04556 7.12533 5.49323 6.00033C5.49323 6.00033 6.17695 5.77533 7.7316 6.85033C8.37463 6.66699 9.07463 6.57533 9.76649 6.57533C10.4583 6.57533 11.1583 6.66699 11.8014 6.85033C13.356 5.77533 14.0397 6.00033 14.0397 6.00033C14.4874 7.12533 14.2025 7.99199 14.1211 8.20033C14.6502 8.79199 14.9595 9.53366 14.9595 10.4587C14.9595 13.642 13.0549 14.342 11.2397 14.5503C11.5328 14.8087 11.8014 15.317 11.8014 16.092V18.3753C11.8014 18.6003 11.9316 18.867 12.3467 18.792C15.5781 17.6753 17.906 14.5587 17.906 10.8753C17.906 9.78098 17.6955 8.69734 17.2864 7.6863C16.8774 6.67525 16.2778 5.75659 15.522 4.98277C14.7662 4.20895 13.8689 3.59512 12.8814 3.17633C11.8938 2.75754 10.8354 2.54199 9.76649 2.54199Z" fill="#686977"/>
</svg>
