<svg width="20" height="21" viewBox="0 0 20 21" fill="none" xmlns="http://www.w3.org/2000/svg">
<path d="M10 7.125C9.25832 7.125 8.5333 7.34493 7.91661 7.75699C7.29993 8.16904 6.81928 8.75471 6.53545 9.43994C6.25162 10.1252 6.17736 10.8792 6.32206 11.6066C6.46675 12.334 6.8239 13.0022 7.34835 13.5267C7.8728 14.0511 8.54098 14.4083 9.26841 14.5529C9.99584 14.6976 10.7498 14.6234 11.4351 14.3395C12.1203 14.0557 12.706 13.5751 13.118 12.9584C13.5301 12.3417 13.75 11.6167 13.75 10.875C13.749 9.88076 13.3535 8.92753 12.6505 8.22449C11.9475 7.52145 10.9942 7.12603 10 7.125ZM10 13.375C9.50555 13.375 9.0222 13.2284 8.61107 12.9537C8.19995 12.679 7.87952 12.2885 7.6903 11.8317C7.50108 11.3749 7.45157 10.8722 7.54804 10.3873C7.6445 9.90232 7.8826 9.45686 8.23223 9.10723C8.58186 8.7576 9.02732 8.5195 9.51227 8.42304C9.99723 8.32657 10.4999 8.37608 10.9567 8.5653C11.4135 8.75452 11.804 9.07495 12.0787 9.48607C12.3534 9.8972 12.5 10.3805 12.5 10.875C12.5 11.538 12.2366 12.1739 11.7678 12.6428C11.2989 13.1116 10.663 13.375 10 13.375ZM13.75 2.75H6.25C5.09006 2.75124 3.97798 3.21258 3.15778 4.03278C2.33758 4.85298 1.87624 5.96506 1.875 7.125V14.625C1.87624 15.7849 2.33758 16.897 3.15778 17.7172C3.97798 18.5374 5.09006 18.9988 6.25 19H13.75C14.9099 18.9988 16.022 18.5374 16.8422 17.7172C17.6624 16.897 18.1238 15.7849 18.125 14.625V7.125C18.1238 5.96506 17.6624 4.85298 16.8422 4.03278C16.022 3.21258 14.9099 2.75124 13.75 2.75ZM16.875 14.625C16.875 15.4538 16.5458 16.2487 15.9597 16.8347C15.3737 17.4208 14.5788 17.75 13.75 17.75H6.25C5.4212 17.75 4.62634 17.4208 4.04029 16.8347C3.45424 16.2487 3.125 15.4538 3.125 14.625V7.125C3.125 6.2962 3.45424 5.50134 4.04029 4.91529C4.62634 4.32924 5.4212 4 6.25 4H13.75C14.5788 4 15.3737 4.32924 15.9597 4.91529C16.5458 5.50134 16.875 6.2962 16.875 7.125V14.625ZM15 6.8125C15 6.99792 14.945 7.17918 14.842 7.33335C14.739 7.48752 14.5926 7.60768 14.4213 7.67864C14.25 7.74959 14.0615 7.76816 13.8796 7.73199C13.6977 7.69581 13.5307 7.60652 13.3996 7.47541C13.2685 7.3443 13.1792 7.17725 13.143 6.9954C13.1068 6.81354 13.1254 6.62504 13.1964 6.45373C13.2673 6.28243 13.3875 6.13601 13.5417 6.033C13.6958 5.92998 13.8771 5.875 14.0625 5.875C14.3111 5.875 14.5496 5.97377 14.7254 6.14959C14.9012 6.3254 15 6.56386 15 6.8125Z" fill="#686977"/>
</svg>
