<svg width="20" height="20" viewBox="0 0 20 20" fill="none" xmlns="http://www.w3.org/2000/svg">
<path d="M18.3102 4.99967C17.6825 5.29134 17.0059 5.48301 16.3048 5.57467C17.0222 5.13301 17.5765 4.43301 17.8374 3.59134C17.1608 4.00801 16.4107 4.29967 15.62 4.46634C14.976 3.74967 14.0711 3.33301 13.0439 3.33301C11.1281 3.33301 9.56292 4.93301 9.56292 6.90801C9.56292 7.19134 9.59553 7.46634 9.6526 7.72467C6.75042 7.57467 4.16619 6.14967 2.44608 3.99134C2.14445 4.51634 1.97325 5.13301 1.97325 5.78301C1.97325 7.02467 2.58466 8.12467 3.53032 8.74967C2.95151 8.74967 2.41347 8.58301 1.94064 8.33301V8.35801C1.94064 10.0913 3.14716 11.5413 4.74499 11.8663C4.232 12.0098 3.69344 12.0298 3.17162 11.9247C3.39304 12.6351 3.82668 13.2567 4.41158 13.7021C4.99648 14.1476 5.70323 14.3944 6.43249 14.408C5.19632 15.4084 3.66401 15.9491 2.08738 15.9413C1.81021 15.9413 1.53303 15.9247 1.25586 15.8913C2.80477 16.908 4.64716 17.4997 6.61999 17.4997C13.0439 17.4997 16.5738 12.0497 16.5738 7.32467C16.5738 7.16634 16.5738 7.01634 16.5656 6.85801C17.2504 6.35801 17.8374 5.72467 18.3102 4.99967Z" fill="#686977"/>
</svg>
