<svg width="81" height="82" viewBox="0 0 81 82" fill="none" xmlns="http://www.w3.org/2000/svg">
<path d="M80.2748 14.1223L67.05 0.734138C66.585 0.264046 65.9548 0 65.2977 0C64.6406 0 64.0103 0.264046 63.5454 0.734138L23.8708 40.8985C23.4057 41.3688 23.1441 42.0069 23.1435 42.6724V56.0605C23.1435 56.7263 23.4047 57.3648 23.8698 57.8356C24.3348 58.3063 24.9655 58.5708 25.6231 58.5708H38.848C39.5054 58.5702 40.1357 58.3054 40.6003 57.8345L80.2748 17.6701C80.7392 17.1994 81 16.5614 81 15.8962C81 15.231 80.7392 14.5929 80.2748 14.1223ZM37.8189 53.5503H28.1028V43.7142L55.379 16.1012L65.0952 25.9373L37.8189 53.5503ZM68.6039 22.3852L58.8878 12.5491L65.2977 6.0601L75.0138 15.8962L68.6039 22.3852ZM77.696 39.3254V76.1427C77.696 77.6962 77.0864 79.186 76.0013 80.2844C74.9163 81.3829 73.4446 82 71.9101 82H5.78587C4.25136 82 2.7797 81.3829 1.69464 80.2844C0.609581 79.186 0 77.6962 0 76.1427V9.20212C0 7.64867 0.609581 6.15884 1.69464 5.06038C2.7797 3.96193 4.25136 3.34482 5.78587 3.34482H42.1542C42.8118 3.34482 43.4426 3.60929 43.9076 4.08006C44.3726 4.55083 44.6339 5.18933 44.6339 5.85509C44.6339 6.52086 44.3726 7.15936 43.9076 7.63012C43.4426 8.10089 42.8118 8.36536 42.1542 8.36536H5.78587C5.56665 8.36536 5.35642 8.45352 5.20141 8.61044C5.0464 8.76737 4.95932 8.9802 4.95932 9.20212V76.1427C4.95932 76.3646 5.0464 76.5775 5.20141 76.7344C5.35642 76.8913 5.56665 76.9795 5.78587 76.9795H71.9101C72.1293 76.9795 72.3396 76.8913 72.4946 76.7344C72.6496 76.5775 72.7366 76.3646 72.7366 76.1427V39.3254C72.7366 38.6596 72.9979 38.0211 73.4629 37.5504C73.928 37.0796 74.5587 36.8151 75.2163 36.8151C75.874 36.8151 76.5047 37.0796 76.9697 37.5504C77.4347 38.0211 77.696 38.6596 77.696 39.3254Z" fill="#AACE9B"/>
</svg>
