<svg width="81" height="82" viewBox="0 0 81 82" fill="none" xmlns="http://www.w3.org/2000/svg">
<path d="M7.36364 36.4444H66.2727V18.2222H7.36364V36.4444ZM62.5909 82V68.3333H51.5455V59.2222H62.5909V45.5556H69.9545V59.2222H81V68.3333H69.9545V82H62.5909ZM7.36364 72.8889C5.33864 72.8889 3.60573 71.9975 2.16491 70.2148C0.721637 68.429 0 66.2833 0 63.7778V9.11111C0 6.60556 0.721637 4.46141 2.16491 2.67867C3.60573 0.892888 5.33864 0 7.36364 0H66.2727C68.2977 0 70.0319 0.892888 71.4751 2.67867C72.916 4.46141 73.6364 6.60556 73.6364 9.11111V36.4444H62.5909C57.4977 36.4444 53.1569 38.6645 49.5683 43.1047C45.9773 47.5478 44.1818 52.9204 44.1818 59.2222V72.8889H7.36364Z" fill="#AACE9B"/>
</svg>
