<svg width="81" height="82" viewBox="0 0 81 82" fill="none" xmlns="http://www.w3.org/2000/svg">
<path d="M20.25 33.3125C20.25 33.9921 19.9833 34.6439 19.5086 35.1245C19.0339 35.605 18.3901 35.875 17.7188 35.875C17.0474 35.875 16.4036 35.605 15.9289 35.1245C15.4542 34.6439 15.1875 33.9921 15.1875 33.3125C15.1875 32.6329 15.4542 31.9811 15.9289 31.5005C16.4036 31.02 17.0474 30.75 17.7188 30.75C18.3901 30.75 19.0339 31.02 19.5086 31.5005C19.9833 31.9811 20.25 32.6329 20.25 33.3125ZM17.7188 56.375C18.3901 56.375 19.0339 56.105 19.5086 55.6245C19.9833 55.1439 20.25 54.4921 20.25 53.8125C20.25 53.1329 19.9833 52.4811 19.5086 52.0005C19.0339 51.52 18.3901 51.25 17.7188 51.25C17.0474 51.25 16.4036 51.52 15.9289 52.0005C15.4542 52.4811 15.1875 53.1329 15.1875 53.8125C15.1875 54.4921 15.4542 55.1439 15.9289 55.6245C16.4036 56.105 17.0474 56.375 17.7188 56.375ZM0 15.375C0 11.2973 1.60011 7.38661 4.44832 4.50323C7.29653 1.61986 11.1595 0 15.1875 0H55.6875C59.7155 0 63.5785 1.61986 66.4267 4.50323C69.2749 7.38661 70.875 11.2973 70.875 15.375V33.825C66.9575 31.7966 62.6189 30.7425 58.2187 30.75H32.9062C32.2349 30.75 31.5911 31.02 31.1164 31.5005C30.6417 31.9811 30.375 32.6329 30.375 33.3125C30.375 33.9921 30.6417 34.6439 31.1164 35.1245C31.5911 35.605 32.2349 35.875 32.9062 35.875H42.2061C38.5488 38.474 35.564 41.927 33.5046 45.9415C31.4451 49.9561 30.3716 54.4139 30.375 58.9375C30.375 63.55 31.4685 67.9062 33.4125 71.75H15.1875C11.1595 71.75 7.29653 70.1301 4.44832 67.2468C1.60011 64.3634 0 60.4527 0 56.375V15.375ZM12.6562 10.25C11.9849 10.25 11.3411 10.52 10.8664 11.0005C10.3917 11.4811 10.125 12.1329 10.125 12.8125C10.125 13.4921 10.3917 14.1439 10.8664 14.6245C11.3411 15.105 11.9849 15.375 12.6562 15.375H58.2187C58.8901 15.375 59.5339 15.105 60.0086 14.6245C60.4833 14.1439 60.75 13.4921 60.75 12.8125C60.75 12.1329 60.4833 11.4811 60.0086 11.0005C59.5339 10.52 58.8901 10.25 58.2187 10.25H12.6562ZM17.7188 41C19.7327 41 21.6642 40.1901 23.0883 38.7484C24.5124 37.3067 25.3125 35.3514 25.3125 33.3125C25.3125 31.2736 24.5124 29.3183 23.0883 27.8766C21.6642 26.4349 19.7327 25.625 17.7188 25.625C15.7048 25.625 13.7733 26.4349 12.3492 27.8766C10.9251 29.3183 10.125 31.2736 10.125 33.3125C10.125 35.3514 10.9251 37.3067 12.3492 38.7484C13.7733 40.1901 15.7048 41 17.7188 41ZM25.3125 53.8125C25.3125 51.7736 24.5124 49.8183 23.0883 48.3766C21.6642 46.9349 19.7327 46.125 17.7188 46.125C15.7048 46.125 13.7733 46.9349 12.3492 48.3766C10.9251 49.8183 10.125 51.7736 10.125 53.8125C10.125 55.8514 10.9251 57.8067 12.3492 59.2484C13.7733 60.6901 15.7048 61.5 17.7188 61.5C19.7327 61.5 21.6642 60.6901 23.0883 59.2484C24.5124 57.8067 25.3125 55.8514 25.3125 53.8125ZM81 58.9375C81 65.0541 78.5998 70.9201 74.3275 75.2451C70.0552 79.5702 64.2607 82 58.2187 82C52.1768 82 46.3823 79.5702 42.11 75.2451C37.8377 70.9201 35.4375 65.0541 35.4375 58.9375C35.4375 52.8209 37.8377 46.9549 42.11 42.6299C46.3823 38.3048 52.1768 35.875 58.2187 35.875C64.2607 35.875 70.0552 38.3048 74.3275 42.6299C78.5998 46.9549 81 52.8209 81 58.9375ZM60.75 48.6875C60.75 48.0079 60.4833 47.3561 60.0086 46.8755C59.5339 46.395 58.8901 46.125 58.2187 46.125C57.5474 46.125 56.9036 46.395 56.4289 46.8755C55.9542 47.3561 55.6875 48.0079 55.6875 48.6875V56.375H48.0937C47.4224 56.375 46.7786 56.645 46.3039 57.1255C45.8292 57.6061 45.5625 58.2579 45.5625 58.9375C45.5625 59.6171 45.8292 60.2689 46.3039 60.7495C46.7786 61.23 47.4224 61.5 48.0937 61.5H55.6875V69.1875C55.6875 69.8671 55.9542 70.5189 56.4289 70.9995C56.9036 71.48 57.5474 71.75 58.2187 71.75C58.8901 71.75 59.5339 71.48 60.0086 70.9995C60.4833 70.5189 60.75 69.8671 60.75 69.1875V61.5H68.3438C69.0151 61.5 69.6589 61.23 70.1336 60.7495C70.6083 60.2689 70.875 59.6171 70.875 58.9375C70.875 58.2579 70.6083 57.6061 70.1336 57.1255C69.6589 56.645 69.0151 56.375 68.3438 56.375H60.75V48.6875Z" fill="#AACE9B"/>
</svg>
