<svg width="151" height="150" viewBox="0 0 151 150" fill="none" xmlns="http://www.w3.org/2000/svg">
<path d="M129.063 92.875L138 83.9375L129.063 75L106.75 97.3125L53.1875 43.75L75.5 21.4375L66.5625 12.5L57.625 21.4375L48.6875 12.5L35.3125 25.875L26.375 16.9375L17.4375 25.875L26.375 34.8125L13 48.1875L21.9375 57.125L13 66.0625L21.9375 75L44.25 52.6875L97.8125 106.25L75.5 128.563L84.4375 137.5L93.375 128.563L102.313 137.5L115.688 124.125L124.625 133.063L133.563 124.125L124.625 115.188L138 101.813L129.063 92.875Z" fill="#AACE9B"/>
</svg>
